<?xml version="1.0" standalone="no"?>
<!DOCTYPE svg PUBLIC "-//W3C//DTD SVG 20010904//EN"
 "http://www.w3.org/TR/2001/REC-SVG-20010904/DTD/svg10.dtd">
<svg version="1.0" xmlns="http://www.w3.org/2000/svg"
 width="260.000000pt" height="260.000000pt" viewBox="0 0 260.000000 260.000000"
 preserveAspectRatio="xMidYMid meet">
<metadata>
Created by potrace 1.11, written by Peter Selinger 2001-2013
</metadata>
<g transform="translate(0.000000,260.000000) scale(0.100000,-0.100000)"
fill="#000000" stroke="none">
<path d="M695 1773 c-222 -47 -375 -220 -392 -442 -19 -255 173 -479 434 -507
130 -13 263 39 377 151 40 39 81 82 90 98 18 27 18 27 -15 75 l-33 48 -59 -70
c-115 -138 -215 -192 -341 -184 -159 10 -297 126 -331 278 -21 90 2 208 56
286 102 149 310 200 459 112 92 -54 164 -137 318 -365 171 -252 273 -356 400
-403 110 -42 267 -30 375 27 89 48 217 191 217 243 0 6 -25 10 -59 10 -53 0
-60 -3 -77 -27 -33 -52 -94 -104 -152 -131 -49 -23 -70 -27 -147 -27 -78 0
-98 4 -145 27 -78 38 -176 141 -281 294 -250 365 -342 457 -503 500 -48 13
-147 17 -191 7z"/>
<path d="M1721 1771 c-103 -27 -219 -105 -300 -203 l-59 -71 36 -50 36 -50 30
39 c57 74 153 162 207 190 135 68 312 30 417 -91 35 -39 75 -114 86 -157 l6
-28 -227 -2 -228 -3 0 -55 0 -55 285 0 285 0 3 39 c5 62 -17 165 -48 231 -55
114 -156 204 -275 246 -66 23 -198 34 -254 20z"/>
</g>
</svg>
