<svg width="27" height="27" viewBox="0 0 27 27" xmlns="http://www.w3.org/2000/svg"><path d="M24.969 7.02a13.327 13.327 0 0 0-4.87-4.869C18.048.955 15.81.356 13.382.356S8.715.955 6.664 2.151a13.325 13.325 0 0 0-4.869 4.87C.598 9.07 0 11.31 0 13.738c0 2.916.851 5.538 2.552 7.867 1.702 2.328 3.9 3.94 6.596 4.834.313.059.546.018.696-.12a.682.682 0 0 0 .227-.524l-.009-.94c-.006-.593-.01-1.11-.01-1.551l-.4.07a5.057 5.057 0 0 1-.966.06 7.31 7.31 0 0 1-1.211-.122 2.697 2.697 0 0 1-1.168-.522 2.206 2.206 0 0 1-.766-1.072l-.175-.4a4.35 4.35 0 0 0-.548-.89c-.25-.324-.503-.545-.758-.661l-.122-.087a1.301 1.301 0 0 1-.227-.21.924.924 0 0 1-.156-.243c-.035-.082-.007-.148.086-.2.093-.054.263-.079.506-.079l.348.052c.232.046.52.186.863.418.342.233.625.535.845.906.267.476.589.839.967 1.09.378.25.758.373 1.141.373a5 5 0 0 0 .993-.086c.28-.059.54-.145.784-.261.105-.78.39-1.378.854-1.796a11.88 11.88 0 0 1-1.786-.314 7.043 7.043 0 0 1-1.637-.68 4.694 4.694 0 0 1-1.404-1.166c-.37-.465-.677-1.075-.914-1.83-.238-.756-.357-1.627-.357-2.613 0-1.406.459-2.602 1.377-3.59-.43-1.057-.39-2.241.122-3.554.336-.105.836-.026 1.498.235s1.147.486 1.455.67c.308.186.554.344.74.471a12.382 12.382 0 0 1 3.346-.453c1.15 0 2.265.152 3.346.453l.662-.418a9.365 9.365 0 0 1 1.603-.767c.615-.232 1.086-.295 1.412-.191.522 1.313.569 2.497.139 3.555.917.987 1.376 2.183 1.376 3.589 0 .986-.12 1.86-.357 2.622-.238.761-.546 1.371-.924 1.83a4.87 4.87 0 0 1-1.411 1.158c-.563.314-1.11.54-1.638.68a11.88 11.88 0 0 1-1.785.313c.603.524.905 1.348.905 2.474v3.677c0 .209.073.383.218.522.145.14.374.181.688.122 2.695-.895 4.894-2.506 6.595-4.836 1.702-2.328 2.553-4.95 2.553-7.866-.001-2.427-.6-4.666-1.795-6.716z" fill="#1E1E1E" fill-rule="evenodd"/></svg>
