<svg width="138" height="23" viewBox="0 0 138 23" xmlns="http://www.w3.org/2000/svg"><g fill="none" fill-rule="evenodd"><g fill="#FFF"><path d="M66.677 7c-.73 0-1.33.26-1.798.781-.468.521-.761 1.26-.879 2.219h5v-.34c0-.852-.2-1.509-.603-1.97-.402-.46-.975-.69-1.72-.69m-7.522 9c.46 0 .96-.126 1.5-.38.54-.252.988-.563 1.345-.932V12h-2.334c-.825.017-1.476.23-1.952.637-.476.407-.714.91-.714 1.51 0 .559.185 1.007.553 1.345.37.34.903.508 1.602.508m8.176 2c-1.903 0-3.38-.622-4.433-1.865-.488.594-1.135 1.054-1.94 1.378-.804.325-1.71.487-2.718.487-1.323 0-2.36-.34-3.112-1.02C54.376 16.3 54 15.358 54 14.153c0-1.22.447-2.162 1.342-2.827.895-.664 2.218-.996 3.97-.996h2.154v-.823c0-.702-.178-1.253-.536-1.651-.357-.397-.866-.596-1.528-.596-.684 0-1.242.172-1.675.515-.432.344-.648.77-.648 1.28l-2.73-.22c0-1.127.476-2.048 1.427-2.763C56.727 5.357 57.943 5 59.425 5c1.676 0 2.932.514 3.767 1.541.985-1.042 2.229-1.556 3.733-1.54 1.594 0 2.838.5 3.733 1.5S72 8.909 72 10.724v1.587h-7.838c.067 1.074.387 1.916.958 2.526.571.61 1.361.915 2.369.915 1.03 0 1.947-.224 2.752-.672l.688-.394.823 1.924c-.526.432-1.183.772-1.968 1.019a8.125 8.125 0 0 1-2.453.371M77.769 2v3.083h2.163v2.11h-2.163v7.08c0 .484.092.834.277 1.049.185.215.515.322.991.322.317 0 .638-.04.963-.117v2.203c-.627.18-1.23.27-1.812.27-2.115 0-3.172-1.207-3.172-3.622V7.193H73v-2.11h2.016V2h2.753zM86.592 7c-.72 0-1.301.264-1.744.792-.443.529-.726 1.264-.848 2.208h5v-.204c-.058-.92-.291-1.617-.702-2.088-.41-.472-.979-.708-1.706-.708m.393 11c-1.78 0-3.222-.562-4.327-1.686C81.553 15.19 81 13.694 81 11.824v-.347c0-1.252.24-2.37.722-3.355.482-.984 1.157-1.751 2.028-2.3.87-.548 1.841-.822 2.912-.822 1.702 0 3.017.544 3.946 1.634C91.536 7.723 92 9.264 92 11.257v1.135h-8.169c.085 1.035.43 1.854 1.034 2.456.605.603 1.365.904 2.282.904 1.286 0 2.334-.521 3.143-1.564l1.514 1.448c-.501.75-1.17 1.331-2.005 1.744-.836.413-1.774.62-2.814.62M100.988 7.855a7.734 7.734 0 0 0-1.22-.095c-1.372 0-2.297.504-2.773 1.51V18H94V5.236h2.86l.073 1.427C97.656 5.554 98.66 5 99.94 5c.428 0 .78.055 1.06.165l-.012 2.69zM104.558 5.236l.079 1.474c.893-1.14 2.067-1.71 3.52-1.71 2.517 0 3.798 1.522 3.843 4.565V18h-2.715V9.73c0-.81-.166-1.41-.497-1.799-.332-.389-.874-.584-1.626-.584-1.095 0-1.91.524-2.447 1.57V18H102V5.236h2.558zM114 18h3V5h-3v13zm0-16.488c0-.435.129-.795.387-1.082.258-.286.628-.43 1.107-.43.48 0 .851.144 1.113.43.262.287.393.647.393 1.082 0 .426-.131.78-.393 1.064-.262.283-.632.424-1.113.424-.48 0-.849-.141-1.107-.424-.258-.283-.387-.638-.387-1.064zM123.769 2v3.083h2.163v2.11h-2.163v7.08c0 .484.092.834.277 1.049.185.215.515.322.991.322.317 0 .638-.04.963-.117v2.203c-.627.18-1.23.27-1.812.27-2.115 0-3.172-1.207-3.172-3.622V7.193H119v-2.11h2.016V2h2.753zM132.568 13.698L135.063 5H138l-4.876 14.765c-.749 2.157-2.019 3.235-3.81 3.235-.401 0-.844-.071-1.327-.214v-2.239l.521.036c.696 0 1.22-.133 1.57-.397.352-.264.63-.708.834-1.332l.397-1.101L127 5h2.971l2.597 8.698z"/></g><g fill="#F7296E"><path d="M34.107 0C29.67 0 26.63 2.757 24 6.172l1.558 2.263c2.408-3.276 4.967-5.853 8.55-5.853 4.114 0 7.536 2.966 8.168 6.835H32.061V12h12.86A10.6 10.6 0 0 0 45 10.709C45 4.804 40.114 0 34.107 0"/><path d="M34.73 19.347c-4.43 0-7.354-3.864-11.066-9.535C19.953 4.142 16.45 0 11.016 0 4.942 0 0 4.935 0 11s4.942 11 11.016 11c4.48 0 7.553-2.822 10.208-6.322L19.66 13.34c-2.434 3.363-5.022 6.008-8.644 6.008-4.614 0-8.368-3.744-8.368-8.347s3.754-8.347 8.368-8.347c4.43 0 7.197 3.667 11.058 9.525C25.934 18.036 29.296 22 34.73 22c4.67 0 8.67-2.916 10.27-7.02h-2.915a8.379 8.379 0 0 1-7.355 4.367"/></g></g></svg>
