<svg width="20" height="20" viewBox="0 0 20 20" xmlns="http://www.w3.org/2000/svg" xmlns:xlink="http://www.w3.org/1999/xlink"><defs><path id="a" d="M0 0h19.999v19.933H0z"/></defs><g fill="none" fill-rule="evenodd"><mask id="b" fill="#fff"><use xlink:href="#a"/></mask><path d="M17.042 17.042h-2.965V12.4c0-1.107-.02-2.53-1.543-2.53-1.542 0-1.777 1.207-1.777 2.451v4.721H7.793V7.498h2.843v1.304h.04c.397-.75 1.364-1.54 2.807-1.54 3.005 0 3.56 1.975 3.56 4.546v5.234zM4.45 6.194a1.72 1.72 0 1 1-.003-3.44 1.72 1.72 0 0 1 .003 3.44zM2.962 17.042h2.97V7.498h-2.97v9.544zM18.52 0H1.474C.661 0 0 .646 0 1.442v17.115C0 19.353.661 20 1.474 20H18.52c.815 0 1.48-.647 1.48-1.443V1.442c0-.796-.665-1.442-1.48-1.442z" fill="#1E1E1E" mask="url(#b)"/></g></svg>
