<svg width="23" height="23" viewBox="0 0 23 23" xmlns="http://www.w3.org/2000/svg"><g fill-rule="nonzero" fill="none"><path fill="#12100E" d="M0 0h22.5v22.5H0z"/><path d="M5.11 8.15a.625.625 0 0 0-.185-.51L3.559 5.887v-.262H7.8l3.278 7.66 2.881-7.66H18v.262L16.832 7.08a.376.376 0 0 0-.13.35v8.766c-.02.133.03.267.13.349l1.14 1.193V18h-5.735v-.262l1.182-1.222c.116-.124.116-.16.116-.35V9.082l-3.284 8.89h-.444L5.983 9.08v5.958a.856.856 0 0 0 .212.684l1.536 1.986v.262H3.375v-.262l1.536-1.986a.827.827 0 0 0 .198-.684v-6.89z" fill="#FFF"/></g></svg>
