<svg width="23" height="23" viewBox="0 0 23 23" xmlns="http://www.w3.org/2000/svg"><g fill-rule="nonzero" fill="none"><path fill="#2D333A" d="M9.385 10.27l2.643-.884.885 2.642-2.642.886z"/><path fill="#2D333A" d="M9.248 10.183l2.954-.99.955 2.853-2.953.99z"/><path d="M21.344 8.053C19.061.443 15.77-1.327 8.16.956.549 3.239-1.221 6.53 1.062 14.14c2.283 7.61 5.575 9.38 13.185 7.097 7.61-2.283 9.38-5.575 7.097-13.185zm-3.84 4.938l-1.434.477.496 1.487a1.149 1.149 0 0 1-.726 1.451c-.124.036-.265.071-.39.054a1.181 1.181 0 0 1-1.061-.78l-.496-1.486-2.955.991.495 1.487a1.149 1.149 0 0 1-.725 1.451c-.124.036-.266.071-.39.053a1.181 1.181 0 0 1-1.062-.778l-.495-1.487-1.434.478c-.124.035-.265.07-.39.053a1.181 1.181 0 0 1-1.061-.779 1.149 1.149 0 0 1 .726-1.451l1.433-.478-.956-2.85-1.433.478c-.124.036-.266.071-.39.053a1.181 1.181 0 0 1-1.061-.778 1.149 1.149 0 0 1 .725-1.452l1.434-.477-.496-1.487a1.149 1.149 0 0 1 .726-1.451 1.149 1.149 0 0 1 1.451.725l.496 1.487 2.955-.991-.495-1.487a1.149 1.149 0 0 1 .725-1.451 1.149 1.149 0 0 1 1.452.726l.495 1.486 1.434-.478a1.149 1.149 0 0 1 1.451.726 1.149 1.149 0 0 1-.726 1.451l-1.433.478.956 2.85 1.433-.478a1.149 1.149 0 0 1 1.451.725 1.149 1.149 0 0 1-.725 1.452z" fill="#1E1E1E"/></g></svg>
