<svg width="25" height="22" viewBox="0 0 25 22" xmlns="http://www.w3.org/2000/svg"><path d="M.431 10.317l5.628 2.126 2.179 7.088a.66.66 0 0 0 1.052.32l3.137-2.587a.927.927 0 0 1 1.141-.032l5.658 4.156c.39.287.942.071 1.04-.405L24.41.809c.106-.52-.399-.954-.889-.763L.425 9.062c-.57.222-.565 1.039.006 1.255zm7.456.994l10.999-6.854c.198-.123.401.148.231.307l-9.077 8.538c-.32.3-.525.702-.583 1.139l-.31 2.318c-.04.31-.47.34-.555.041l-1.19-4.228a1.127 1.127 0 0 1 .485-1.26z" fill="#1E1E1E" fill-rule="nonzero"/></svg>
