<svg width="36" height="40" viewBox="0 0 36 40" xmlns="http://www.w3.org/2000/svg"><defs><linearGradient x1="100%" y1="64.001%" x2="0%" y2="29.698%" id="a"><stop stop-color="#FFF" offset="0%"/><stop stop-color="#311B58" offset="100%"/></linearGradient><linearGradient x1="100%" y1="77.401%" x2="0%" y2="19.107%" id="b"><stop stop-color="#FFF" offset="0%"/><stop stop-color="#311B58" offset="100%"/></linearGradient><linearGradient x1="0%" y1="0%" y2="100%" id="c"><stop stop-color="#FFF" offset="0%"/><stop stop-color="#311B58" offset="100%"/></linearGradient></defs><g fill="none" fill-rule="evenodd"><path d="M17.633 27.771l17.704-10.067v16.58a5 5 0 0 1-2.465 4.31l-15.24 8.964V27.77z" fill="url(#a)" transform="translate(0 -8)"/><path d="M0 27.771l17.704-10.065v16.578a5 5 0 0 1-2.465 4.31L0 47.558V27.77z" fill="url(#b)" transform="matrix(-1 0 0 1 17.704 -8)"/><path d="M13.221 9.717L30.163 5.21l-5.31 19.687L5.176 30.2l4.498-16.935a5 5 0 0 1 3.547-3.548z" fill="url(#c)" transform="rotate(45 27.326 13.705)"/></g></svg>
