
<svg width="170" height="28" viewBox="0 0 170 28" xmlns="http://www.w3.org/2000/svg"><g fill="none" fill-rule="evenodd"><g fill="#000"><path d="M67.772 25.517v1.092h.691c.195 0 .347-.047.457-.142a.49.49 0 0 0 .165-.393c0-.363-.19-.549-.57-.557h-.743zm0-.446h.61c.193 0 .344-.043.453-.128a.434.434 0 0 0 .164-.364c0-.172-.05-.297-.151-.374-.101-.077-.258-.115-.471-.115h-.605v.981zm-.622 2.023V23.6h1.227c.405 0 .713.079.924.237.212.158.317.394.317.708a.74.74 0 0 1-.132.432.85.85 0 0 1-.389.297.79.79 0 0 1 .449.29.828.828 0 0 1 .158.51c0 .327-.108.579-.323.755-.215.176-.524.264-.925.264H67.15zM73.415 26.61h1.625v.484h-2.247V23.6h.622zM80.477 25.256c0-.387-.075-.684-.225-.89-.15-.206-.363-.31-.638-.31a.74.74 0 0 0-.63.309c-.152.205-.23.496-.233.872v.201c0 .384.077.68.23.89.153.21.366.315.638.315.275 0 .487-.103.635-.307.149-.205.223-.504.223-.898v-.182zm.622.182c0 .343-.061.643-.182.901a1.35 1.35 0 0 1-.52.595 1.458 1.458 0 0 1-.778.208c-.29 0-.549-.07-.776-.208a1.37 1.37 0 0 1-.526-.591 2.032 2.032 0 0 1-.188-.886v-.196c0-.34.062-.641.186-.902a1.369 1.369 0 0 1 1.299-.806c.292 0 .55.068.775.205.226.137.4.333.523.59.123.257.185.555.187.896v.194zM87.032 25.957c-.036.372-.177.663-.423.872-.246.209-.573.313-.981.313a1.42 1.42 0 0 1-.754-.198 1.31 1.31 0 0 1-.502-.563 1.99 1.99 0 0 1-.184-.847v-.326a2 2 0 0 1 .18-.87c.119-.252.29-.445.514-.582.223-.136.482-.203.776-.203.394 0 .712.104.953.313.241.208.381.504.42.886h-.619c-.03-.251-.104-.432-.225-.543-.12-.112-.297-.167-.53-.167-.27 0-.478.096-.622.29-.146.192-.22.475-.223.848v.31c0 .378.07.666.208.865.138.198.34.297.608.297.244 0 .428-.053.55-.16.124-.108.201-.286.234-.535h.62zM91.148 25.585l-.406.42v1.089h-.621V23.6h.621v1.638l.345-.415 1.047-1.223h.752l-1.33 1.547 1.406 1.946h-.737zM98.895 25.957c-.036.372-.177.663-.422.872-.246.209-.573.313-.981.313a1.42 1.42 0 0 1-.754-.198 1.308 1.308 0 0 1-.503-.563 1.99 1.99 0 0 1-.184-.847v-.326c0-.33.06-.62.18-.87.12-.252.29-.445.515-.582.223-.136.482-.203.775-.203.395 0 .713.104.954.313.24.208.381.504.42.886h-.62c-.029-.251-.104-.432-.224-.543-.12-.112-.297-.167-.53-.167-.27 0-.478.096-.623.29-.145.192-.22.475-.223.848v.31c0 .378.07.666.208.865.139.198.341.297.609.297.244 0 .427-.053.55-.16.123-.108.201-.286.234-.535h.62zM104.826 27.094h-.62v-1.55h-1.6v1.55h-.622V23.6h.622v1.454h1.6V23.6h.62zM109.026 25.791h1.037l-.518-1.449-.519 1.449zm1.212.49h-1.387l-.29.813h-.646l1.352-3.494h.558l1.354 3.494h-.649l-.292-.814zM114.268 27.094h.62V23.6h-.62zM120.816 27.094h-.622l-1.595-2.479v2.479h-.622V23.6h.622l1.6 2.487v-2.487h.617z"/></g><g fill="#000"><path d="M83.143 8.38c-.926 0-1.686.324-2.28.972-.594.648-.965 1.569-1.115 2.762h6.341v-.423c0-1.061-.254-1.879-.764-2.451-.51-.574-1.237-.86-2.182-.86M73 18.848c.542 0 1.131-.138 1.768-.415.636-.277 1.164-.618 1.585-1.022v-2.944h-2.75c-.973.019-1.74.25-2.3.697-.562.446-.842.998-.842 1.656 0 .61.217 1.101.652 1.472.435.371 1.064.556 1.887.556m10.648 2.593c-2.366 0-4.204-.756-5.513-2.268-.608.723-1.413 1.282-2.413 1.676-1.001.395-2.128.592-3.382.592-1.646 0-2.936-.413-3.872-1.24-.935-.826-1.402-1.972-1.402-3.438 0-1.484.556-2.63 1.669-3.438 1.113-.807 2.76-1.211 4.938-1.211h2.68v-1c0-.855-.222-1.525-.666-2.009-.445-.483-1.079-.725-1.901-.725-.851 0-1.546.21-2.084.627-.538.418-.807.937-.807 1.557l-3.395-.268c0-1.371.592-2.491 1.775-3.36 1.183-.87 2.696-1.304 4.538-1.304 2.086 0 3.648.625 4.687 1.874 1.225-1.268 2.773-1.892 4.643-1.874 1.983 0 3.53.609 4.644 1.825 1.113 1.217 1.67 2.928 1.67 5.136v1.93h-9.751c.084 1.306.482 2.33 1.193 3.072.71.742 1.692 1.113 2.946 1.113 1.281 0 2.422-.273 3.423-.817l.856-.48 1.024 2.34c-.655.526-1.471.939-2.448 1.239-.978.3-1.995.451-3.052.451M96.148 2.208v3.706h2.68V8.45h-2.68v8.51c0 .583.114 1.003.343 1.262.23.258.639.387 1.228.387.393 0 .79-.047 1.192-.14v2.648a8.361 8.361 0 0 1-2.244.324c-2.62 0-3.929-1.451-3.929-4.354V8.45h-2.497V5.914h2.497V2.208h3.41zM106.763 8.38c-.936 0-1.69.329-2.266.986-.575.658-.943 1.573-1.101 2.748h6.495v-.254c-.074-1.146-.378-2.013-.911-2.6-.534-.586-1.272-.88-2.217-.88m.407 13.061c-2.161 0-3.913-.683-5.254-2.05-1.343-1.367-2.014-3.186-2.014-5.46v-.422c0-1.522.293-2.882.877-4.08.585-1.197 1.405-2.13 2.463-2.796 1.056-.667 2.235-1 3.535-1 2.067 0 3.664.662 4.791 1.986 1.127 1.324 1.69 3.198 1.69 5.622v1.38h-9.918c.103 1.26.521 2.255 1.255 2.988.734.732 1.658 1.099 2.771 1.099 1.562 0 2.834-.635 3.816-1.902l1.838 1.76a6.145 6.145 0 0 1-2.434 2.121c-1.015.503-2.154.754-3.416.754M123.515 9.042a8.4 8.4 0 0 0-1.39-.113c-1.56 0-2.613.601-3.156 1.804v10.426h-3.409V5.914h3.255l.084 1.705c.823-1.324 1.965-1.987 3.424-1.987.486 0 .888.066 1.206.197l-.014 3.213zM128.502 5.914l.098 1.761c1.122-1.362 2.596-2.042 4.42-2.042 3.161 0 4.77 1.817 4.826 5.452V21.16h-3.41v-9.877c0-.967-.208-1.683-.624-2.148-.416-.465-1.097-.698-2.04-.698-1.376 0-2.4.625-3.074 1.874v10.85h-3.409V5.913h3.213zM140.426 21.16h3.41V5.913h-3.41V21.16zm-.21-19.205c0-.526.166-.963.498-1.31.332-.348.807-.522 1.424-.522.617 0 1.094.174 1.431.522.337.347.505.784.505 1.31 0 .517-.168.946-.505 1.289-.337.343-.814.514-1.431.514-.617 0-1.092-.17-1.424-.514-.332-.343-.498-.772-.498-1.29zM152.03 2.208v3.706h2.68V8.45h-2.68v8.51c0 .583.114 1.003.343 1.262.229.258.638.387 1.228.387.393 0 .79-.047 1.192-.14v2.648a8.361 8.361 0 0 1-2.245.324c-2.619 0-3.928-1.451-3.928-4.354V8.45h-2.497V5.914h2.497V2.208h3.41zM162.892 16.256l3.087-10.342h3.634L163.58 23.47c-.926 2.564-2.497 3.846-4.714 3.846-.496 0-1.043-.085-1.642-.255V24.4l.646.042c.86 0 1.508-.157 1.943-.471.435-.315.779-.843 1.031-1.584l.49-1.31-5.33-15.163h3.676l3.212 10.342z"/></g><g fill="#F7296E"><path d="M42.924 0c-5.547 0-9.348 3.497-12.634 7.83l1.947 2.87c3.01-4.155 6.209-7.424 10.687-7.424 5.143 0 9.42 3.762 10.21 8.67H40.366v3.276H56.44c.065-.537.099-1.084.099-1.638C56.539 6.094 50.431 0 42.924 0"/><path d="M42.924 23.892c-5.476 0-9.09-4.772-13.677-11.775C24.661 5.115 20.331 0 13.615 0 6.108 0 0 6.094 0 13.584c0 7.49 6.108 13.584 13.615 13.584 5.537 0 9.335-3.485 12.617-7.807l-1.933-2.888c-3.01 4.153-6.207 7.42-10.684 7.42-5.703 0-10.342-4.625-10.342-10.309 0-5.684 4.64-10.308 10.342-10.308 5.476 0 8.895 4.53 13.667 11.763 4.771 7.234 8.926 12.129 15.642 12.129 5.771 0 10.715-3.602 12.693-8.67h-3.603a10.357 10.357 0 0 1-9.09 5.394"/></g></g></svg>
