<svg width="26" height="24" viewBox="0 0 26 24" xmlns="http://www.w3.org/2000/svg" xmlns:xlink="http://www.w3.org/1999/xlink"><defs><path id="a" d="M0 0h25.179v23.771H0z"/></defs><g fill="none" fill-rule="evenodd"><mask id="b" fill="#fff"><use xlink:href="#a"/></mask><path d="M8.445 18.833c.051.018.174.104.27.188.518.457 1.16.722 2.226.92a9.422 9.422 0 0 0 3.207.014c1.077-.185 1.764-.463 2.301-.935.096-.084.219-.169.27-.188a.507.507 0 0 1 .668.603c-.085.344-.932.901-1.822 1.198-1.099.367-1.733.465-2.996.464-1.005 0-1.45-.048-2.18-.232-1.093-.274-1.923-.665-2.397-1.128-.152-.149-.19-.204-.216-.307a.505.505 0 0 1 .669-.597m9.249-6.195c.363.086.656.251.951.537.446.43.648.901.648 1.505 0 .458-.09.778-.321 1.134-.29.448-.712.763-1.214.905-.288.082-.811.083-1.093.002a2.004 2.004 0 0 1-.918-.531 1.99 1.99 0 0 1-.638-1.61c.017-.365.06-.533.216-.849.106-.213.156-.279.393-.515.226-.226.31-.291.503-.39a1.95 1.95 0 0 1 1.08-.237c.128.006.303.028.393.05m-9.234 0c.393.092.718.288 1.044.63.176.183.245.28.337.468.154.31.197.483.214.846.031.655-.18 1.172-.667 1.634a2.026 2.026 0 0 1-1.55.565 1.916 1.916 0 0 1-.797-.208 2.135 2.135 0 0 1-1.12-1.382 2.644 2.644 0 0 1-.011-.98c.022-.102.1-.306.173-.455.117-.239.162-.3.391-.53.37-.37.713-.554 1.173-.625.203-.031.6-.014.813.036M13.958.04a.493.493 0 0 0-.259.307c-.032.113-1.631 7.292-1.631 7.324 0 .007-.126.02-.278.03-2.633.161-4.755.818-6.657 2.06a3.448 3.448 0 0 1-.313.19.343.343 0 0 1-.095-.08 3.24 3.24 0 0 0-.708-.5 2.838 2.838 0 0 0-2.402-.04 2.885 2.885 0 0 0-1.546 1.842c-.062.23-.069.303-.069.694 0 .391.007.465.068.694a2.906 2.906 0 0 0 1.261 1.712c.111.068.212.128.223.132.01.004.003.082-.017.175-.183.854-.142 1.916.109 2.79.523 1.825 1.935 3.486 3.949 4.642 2.571 1.478 5.834 2.053 9.175 1.618 2.034-.265 4.15-1.056 5.67-2.12 1.774-1.24 2.974-2.953 3.28-4.68a5.665 5.665 0 0 0-.005-2.157c-.053-.268-.053-.285-.012-.31.56-.335.904-.683 1.157-1.172.401-.771.428-1.718.07-2.481a2.906 2.906 0 0 0-1.284-1.333 2.845 2.845 0 0 0-2.52-.006c-.19.096-.541.349-.66.475a.327.327 0 0 1-.096.08c-.01 0-.11-.06-.218-.134a11.434 11.434 0 0 0-1.27-.727c-1.627-.81-3.392-1.25-5.496-1.367-.303-.017-.313-.019-.3-.071.008-.03.337-1.515.731-3.302.394-1.787.72-3.253.726-3.26.006-.005 1.064.224 2.35.511l2.338.522.016.203c.02.268.083.498.193.718.119.236.166.302.381.527.284.297.585.48.966.584.234.065.844.065 1.077 0 .38-.104.683-.287.969-.584.398-.415.563-.784.593-1.335.037-.653-.154-1.148-.62-1.608-.441-.434-.852-.6-1.482-.602-.725 0-1.358.337-1.748.932a1.721 1.721 0 0 0-.107.178c-.006.019-.148-.002-.43-.065C14.67.086 14.266 0 14.15 0a.498.498 0 0 0-.193.04" fill="#231F20" mask="url(#b)"/></g></svg>
