<svg width="26" height="21" viewBox="0 0 26 21" xmlns="http://www.w3.org/2000/svg"><path d="M7.895 20.404c9.473 0 14.654-7.85 14.654-14.656 0-.223-.005-.445-.015-.665a10.479 10.479 0 0 0 2.57-2.667 10.28 10.28 0 0 1-2.958.81A5.168 5.168 0 0 0 24.41.377a10.32 10.32 0 0 1-3.27 1.25 5.152 5.152 0 0 0-8.777 4.698A14.622 14.622 0 0 1 1.747.943a5.133 5.133 0 0 0-.697 2.59c0 1.786.909 3.364 2.292 4.287a5.112 5.112 0 0 1-2.333-.645l-.001.066a5.153 5.153 0 0 0 4.132 5.05 5.164 5.164 0 0 1-2.326.088 5.156 5.156 0 0 0 4.811 3.578A10.334 10.334 0 0 1 1.23 18.16c-.416 0-.826-.023-1.229-.07a14.58 14.58 0 0 0 7.895 2.313" fill="#1E1E1E" fill-rule="evenodd"/></svg>
